# xmcd
#
# Track frame offsets:
#	150
#	16686
#	34437
#	49563
#	69126
#	86481
#	106473
#	121503
#	141754
#	160631
#	179951
#
# Disc length: 2624 seconds
#
# Revision: 1
# Processed by: cddbd v1.5.2PL0 Copyright (c) Steve Scherf et al.
# Submitted via: audiograbber 1.83.01
#
DISCID=850a3e0b
DTITLE=Kenny Chesney - Songs for the Saints
DYEAR=2018
DGENRE=Country
TTITLE0=Song for the Saints
TTITLE1=Every Heart
TTITLE2=Get Along
TTITLE3=Pirate Song
TTITLE4=Love for Love City (with Ziggy Marley)
TTITLE5=Ends of the Earth
TTITLE6=Gulf Moon
TTITLE7=Island Rain
TTITLE8=Trying to Reason With Hurricane Season (with Jimmy Buffett)
TTITLE9=We're All Here
TTITLE10=Better Boat (feat. Mindy Smith)
EXTD=
EXTT0=
EXTT1=
EXTT2=
EXTT3=
EXTT4=
EXTT5=
EXTT6=
EXTT7=
EXTT8=
EXTT9=
EXTT10=
PLAYORDER=
